<svg width="200" height="201" viewBox="0 0 200 201" fill="none" xmlns="http://www.w3.org/2000/svg">
<g clip-path="url(#clip0)">
<rect width="200" height="200" rx="16" fill="#CB5747"/>
<path d="M99.2607 130.712H88.897L83.7902 120.999H76.9813V130.712H67.8191V95.6158H83.5898C92.9021 95.6158 98.2093 100.122 98.2093 107.932C98.2093 113.239 96.0064 117.144 91.951 119.247L99.2607 130.712ZM76.9854 102.921V113.686H83.6442C87.3491 113.686 89.502 111.783 89.502 108.228C89.502 104.774 87.3491 102.921 83.6442 102.921H76.9854ZM104.071 95.6117H131.749V102.921H113.225V109.48H129.947V116.735L113.225 116.785V123.394H132.25V130.712H104.063L104.071 95.6117Z" fill="white"/>
<g filter="url(#filter0_i)">
<path d="M99.2607 130.712H88.897L83.7902 120.999H76.9813V130.712H67.8191V95.6158H83.5898C92.9021 95.6158 98.2093 100.122 98.2093 107.932C98.2093 113.239 96.0064 117.144 91.951 119.247L99.2607 130.712ZM76.9854 102.921V113.686H83.6442C87.3491 113.686 89.502 111.783 89.502 108.228C89.502 104.774 87.3491 102.921 83.6442 102.921H76.9854ZM104.071 95.6117H131.749V102.921H113.225V109.48H129.947V116.735L113.225 116.785V123.394H132.25V130.712H104.063L104.071 95.6117Z" fill="white"/>
</g>
<path d="M29.7669 142.236L36.2015 145.951L107.886 21.7942L101.451 18.0791L29.7669 142.236Z" fill="white"/>
<path d="M171.662 132.317H28.2934V139.747H171.662V132.317Z" fill="white"/>
<path d="M31.1303 136.491L102.841 177.895L106.556 171.461L34.8454 130.057L31.1303 136.491Z" fill="white"/>
<path d="M93.4258 28.5828L165.137 69.9863L168.852 63.5519L97.1409 22.1482L93.4258 28.5828Z" fill="white"/>
<path d="M31.1501 63.5235L34.8653 69.9582L106.576 28.5546L102.861 22.1199L31.1501 63.5235Z" fill="white"/>
<path d="M92.1303 21.7956L163.815 145.953L170.249 142.237L98.565 18.0804L92.1303 21.7956Z" fill="white"/>
<path d="M41.4082 58.5964H33.978V141.404H41.4082V58.5964Z" fill="white"/>
<path d="M166.022 58.5964H158.592V141.404H166.022V58.5964Z" fill="white"/>
<path d="M98.3313 169.129L101.577 174.75L163.946 138.74L160.7 133.119L98.3313 169.129Z" fill="white"/>
<path d="M175.869 143.821C171.572 151.296 161.994 153.847 154.519 149.55C147.043 145.253 144.492 135.674 148.789 128.199C153.086 120.724 162.665 118.173 170.14 122.47C177.66 126.812 180.211 136.346 175.869 143.821Z" fill="white"/>
<path d="M51.1661 71.8007C46.8691 79.2758 37.2903 81.8271 29.8152 77.5301C22.3402 73.2331 19.7889 63.6543 24.0859 56.1793C28.3829 48.7042 37.9617 46.1529 45.4367 50.4499C52.9118 54.7917 55.4631 64.3257 51.1661 71.8007Z" fill="white"/>
<path d="M24.1306 143.821C19.8336 136.346 22.3849 126.812 29.86 122.47C37.335 118.173 46.869 120.724 51.2108 128.199C55.5079 135.674 52.9565 145.208 45.4815 149.55C37.9617 153.847 28.4276 151.296 24.1306 143.821Z" fill="white"/>
<path d="M148.834 71.8007C144.537 64.3257 147.088 54.7917 154.563 50.4499C162.038 46.1529 171.572 48.7042 175.914 56.1793C180.211 63.6543 177.66 73.1883 170.185 77.5301C162.71 81.8271 153.131 79.2758 148.834 71.8007Z" fill="white"/>
<path d="M100 187.641C91.3612 187.641 84.3785 180.659 84.3785 172.02C84.3785 163.381 91.3612 156.398 100 156.398C108.639 156.398 115.621 163.381 115.621 172.02C115.621 180.614 108.639 187.641 100 187.641Z" fill="white"/>
<path d="M100 43.6015C91.3612 43.6015 84.3785 36.6189 84.3785 27.9801C84.3785 19.3412 91.3612 12.3586 100 12.3586C108.639 12.3586 115.621 19.3412 115.621 27.9801C115.621 36.6189 108.639 43.6015 100 43.6015Z" fill="white"/>
</g>
<defs>
<filter id="filter0_i" x="67.8191" y="95.6117" width="64.4308" height="37.1006" filterUnits="userSpaceOnUse" color-interpolation-filters="sRGB">
<feFlood flood-opacity="0" result="BackgroundImageFix"/>
<feBlend mode="normal" in="SourceGraphic" in2="BackgroundImageFix" result="shape"/>
<feColorMatrix in="SourceAlpha" type="matrix" values="0 0 0 0 0 0 0 0 0 0 0 0 0 0 0 0 0 0 127 0" result="hardAlpha"/>
<feOffset dy="2"/>
<feGaussianBlur stdDeviation="2"/>
<feComposite in2="hardAlpha" operator="arithmetic" k2="-1" k3="1"/>
<feColorMatrix type="matrix" values="0 0 0 0 0 0 0 0 0 0 0 0 0 0 0 0 0 0 0.02 0"/>
<feBlend mode="normal" in2="shape" result="effect1_innerShadow"/>
</filter>
<clipPath id="clip0">
<rect width="200" height="200.98" fill="white"/>
</clipPath>
</defs>
</svg>
